<svg xmlns="http://www.w3.org/2000/svg" width="1280" height="720" viewBox="0 0 1280 720">
  <rect width="1280" height="720" fill="#2a2a3a"/>
  <!-- Sky -->
  <rect width="1280" height="300" fill="#3a3a5a"/>
  <!-- Canyon walls -->
  <rect x="0" y="400" width="350" height="320" fill="#4a3a2a"/>
  <rect x="930" y="400" width="350" height="320" fill="#4a3a2a"/>
  <!-- Gorge -->
  <rect x="350" y="500" width="580" height="220" fill="#0a0a15"/>
  <!-- Bridge ropes -->
  <line x1="350" y1="420" x2="930" y2="420" stroke="#8a7a5a" stroke-width="4"/>
  <line x1="350" y1="450" x2="930" y2="450" stroke="#8a7a5a" stroke-width="4"/>
  <!-- Bridge planks -->
  <rect x="380" y="440" width="20" height="15" fill="#6a5a3a" rx="1"/>
  <rect x="420" y="440" width="20" height="15" fill="#6a5a3a" rx="1"/>
  <rect x="460" y="440" width="20" height="15" fill="#6a5a3a" rx="1"/>
  <rect x="500" y="440" width="20" height="15" fill="#6a5a3a" rx="1"/>
  <rect x="540" y="440" width="20" height="15" fill="#6a5a3a" rx="1"/>
  <rect x="580" y="440" width="20" height="15" fill="#6a5a3a" rx="1"/>
  <rect x="620" y="440" width="20" height="15" fill="#6a5a3a" rx="1"/>
  <rect x="660" y="440" width="20" height="15" fill="#6a5a3a" rx="1"/>
  <rect x="700" y="440" width="20" height="15" fill="#6a5a3a" rx="1"/>
  <rect x="740" y="440" width="20" height="15" fill="#6a5a3a" rx="1"/>
  <rect x="780" y="440" width="20" height="15" fill="#6a5a3a" rx="1"/>
  <rect x="820" y="440" width="20" height="15" fill="#6a5a3a" rx="1"/>
  <rect x="860" y="440" width="20" height="15" fill="#6a5a3a" rx="1"/>
  <rect x="900" y="440" width="20" height="15" fill="#6a5a3a" rx="1"/>
  <text x="640" y="680" text-anchor="middle" fill="rgba(255,255,255,0.3)" font-family="sans-serif" font-size="18">bridge_bg</text>
</svg>
