<svg xmlns="http://www.w3.org/2000/svg" width="1280" height="720" viewBox="0 0 1280 720">
  <!-- Sky -->
  <rect width="1280" height="720" fill="#5a7a9a"/>
  <!-- Ground -->
  <rect y="480" width="1280" height="240" fill="#6a8a5a"/>
  <!-- Path -->
  <polygon points="500,720 540,480 580,480 640,720" fill="#9a8a6a"/>
  <!-- Houses -->
  <rect x="150" y="380" width="120" height="100" fill="#8a7050"/>
  <polygon points="150,380 210,310 270,380" fill="#a05030"/>
  <rect x="350" y="400" width="100" height="80" fill="#8a7050"/>
  <polygon points="350,400 400,340 450,400" fill="#a05030"/>
  <rect x="750" y="370" width="130" height="110" fill="#8a7050"/>
  <polygon points="750,370 815,290 880,370" fill="#a05030"/>
  <rect x="1000" y="400" width="100" height="80" fill="#8a7050"/>
  <polygon points="1000,400 1050,340 1100,400" fill="#a05030"/>
  <!-- Smoke -->
  <circle cx="210" cy="280" r="12" fill="rgba(200,200,200,0.3)"/>
  <circle cx="205" cy="255" r="10" fill="rgba(200,200,200,0.2)"/>
  <circle cx="215" cy="235" r="8" fill="rgba(200,200,200,0.1)"/>
  <text x="640" y="690" text-anchor="middle" fill="rgba(255,255,255,0.3)" font-family="sans-serif" font-size="18">village_bg</text>
</svg>
